<?xml version="1.0" encoding="utf-8"?>
<!-- Generator: Adobe Illustrator 23.0.3, SVG Export Plug-In . SVG Version: 6.00 Build 0)  -->
<svg version="1.1" id="Layer_1" xmlns="http://www.w3.org/2000/svg" xmlns:xlink="http://www.w3.org/1999/xlink" x="0px" y="0px"
	 viewBox="0 0 1207.8 304.6" style="enable-background:new 0 0 1207.8 304.6;" xml:space="preserve">
<style type="text/css">
	.st0{clip-path:url(#SVGID_2_);}
	.st1{fill-rule:evenodd;clip-rule:evenodd;fill-opacity:0;}
	.st2{fill:none;stroke:#38C6FF;stroke-width:24;stroke-linejoin:round;stroke-miterlimit:10;}
</style>
<g>
	<defs>
		<rect id="SVGID_1_" width="1207.8" height="304.6"/>
	</defs>
	<clipPath id="SVGID_2_">
		<use xlink:href="#SVGID_1_"  style="overflow:visible;"/>
	</clipPath>
	<g class="st0">
		<path class="st1" d="M0,0h1207.8v304.6H0V0z"/>
		<path class="st1" d="M17.3,130.5h117.6v112.4H17.3L17.3,130.5z"/>
		<path class="st2" d="M17.3,130.5h117.6v112.4H17.3L17.3,130.5z"/>
		<path class="st1" d="M17.3,18.3h234.9v224.5H17.3L17.3,18.3z"/>
		<path class="st2" d="M17.3,18.3h234.9v224.5H17.3L17.3,18.3z"/>
		<path class="st1" d="M281.5,18.8H1308v196.8H281.5L281.5,18.8z"/>
		<path d="M384.9,236.8c-7.6,6.5-14.9,11-21.9,13.7c-7,2.7-14.6,4-22.6,4c-13.3,0-23.5-3.2-30.6-9.7c-7.1-6.5-10.7-14.8-10.7-24.9
			c0-5.9,1.3-11.3,4-16.2c2.7-4.9,6.2-8.8,10.6-11.8c4.4-3,9.3-5.2,14.8-6.7c4-1.1,10.1-2.1,18.2-3.1c16.6-2,28.8-4.3,36.6-7.1
			c0.1-2.8,0.1-4.6,0.1-5.4c0-8.4-1.9-14.2-5.8-17.7c-5.2-4.6-13-7-23.3-7c-9.6,0-16.8,1.7-21.4,5.1c-4.6,3.4-8,9.4-10.2,17.9
			l-20-2.7c1.8-8.6,4.8-15.5,9-20.8c4.2-5.3,10.2-9.3,18.1-12.2c7.9-2.9,17-4.3,27.5-4.3c10.3,0,18.7,1.2,25.2,3.7
			c6.5,2.4,11.2,5.5,14.2,9.2c3,3.7,5.2,8.3,6.4,14c0.7,3.5,1,9.8,1,18.9v27.3c0,19.1,0.4,31.1,1.3,36.2c0.9,5.1,2.6,9.9,5.2,14.5
			H389C386.9,247.5,385.5,242.5,384.9,236.8z M383.2,191c-7.4,3-18.6,5.6-33.5,7.7c-8.4,1.2-14.4,2.6-17.9,4.1
			c-3.5,1.5-6.2,3.7-8.1,6.7c-1.9,2.9-2.8,6.2-2.8,9.7c0,5.5,2.1,10,6.2,13.7c4.1,3.6,10.2,5.5,18.2,5.5c7.9,0,14.9-1.7,21.1-5.2
			c6.2-3.5,10.7-8.2,13.6-14.2c2.2-4.6,3.3-11.5,3.3-20.5V191z M435.7,251.8v-121h18.5V148c8.9-13.3,21.7-19.9,38.5-19.9
			c7.3,0,14,1.3,20.1,3.9c6.1,2.6,10.7,6.1,13.7,10.3c3,4.2,5.2,9.3,6.4,15.2c0.8,3.8,1.1,10.4,1.1,19.9v74.4h-20.5v-73.6
			c0-8.4-0.8-14.6-2.4-18.7c-1.6-4.1-4.4-7.5-8.5-9.9s-8.8-3.7-14.3-3.7c-8.7,0-16.3,2.8-22.6,8.3c-6.3,5.5-9.5,16.1-9.5,31.6v66.1
			H435.7z M564.5,298.4l-2.3-19.2c4.5,1.2,8.4,1.8,11.7,1.8c4.6,0,8.2-0.8,10.9-2.3c2.7-1.5,5-3.7,6.7-6.4c1.3-2,3.4-7.1,6.3-15.3
			c0.4-1.1,1-2.8,1.8-5l-45.9-121.2h22.1l25.2,70.1c3.3,8.9,6.2,18.2,8.8,28c2.4-9.4,5.2-18.6,8.4-27.6l25.9-70.5h20.5l-46,123
			c-4.9,13.3-8.8,22.4-11.5,27.5c-3.6,6.8-7.8,11.7-12.5,14.9s-10.3,4.7-16.9,4.7C573.8,300.9,569.4,300,564.5,298.4z M673.9,215.7
			l20.3-3.2c1.1,8.1,4.3,14.4,9.5,18.7c5.2,4.3,12.5,6.5,21.8,6.5c9.4,0,16.4-1.9,21-5.8c4.6-3.8,6.8-8.3,6.8-13.5
			c0-4.6-2-8.3-6-10.9c-2.8-1.8-9.8-4.1-21-7c-15-3.8-25.5-7.1-31.3-9.9c-5.8-2.8-10.2-6.6-13.2-11.5c-3-4.9-4.5-10.3-4.5-16.2
			c0-5.4,1.2-10.4,3.7-15s5.8-8.4,10.1-11.5c3.2-2.4,7.5-4.3,13-6c5.5-1.6,11.4-2.5,17.7-2.5c9.5,0,17.8,1.4,25,4.1
			c7.2,2.7,12.5,6.4,15.9,11.1c3.4,4.7,5.8,10.9,7.1,18.7l-20,2.7c-0.9-6.2-3.6-11.1-7.9-14.6c-4.4-3.5-10.5-5.2-18.5-5.2
			c-9.4,0-16.1,1.6-20.2,4.7c-4,3.1-6,6.8-6,10.9c0,2.7,0.8,5,2.5,7.2c1.7,2.2,4.3,4,7.9,5.5c2.1,0.8,8.1,2.5,18.1,5.2
			c14.5,3.9,24.6,7,30.3,9.5c5.7,2.5,10.2,6.1,13.5,10.8c3.3,4.7,4.9,10.6,4.9,17.5c0,6.8-2,13.3-6,19.3c-4,6-9.7,10.7-17.2,14
			c-7.5,3.3-16,5-25.5,5c-15.7,0-27.7-3.3-36-9.8S676.2,228.5,673.9,215.7z M877.7,207.5l20.2,2.6c-2.2,13.9-7.8,24.8-16.9,32.7
			c-9.1,7.9-20.2,11.8-33.4,11.8c-16.6,0-29.9-5.4-39.9-16.2c-10.1-10.8-15.1-26.3-15.1-46.5c0-13.1,2.2-24.5,6.5-34.3
			c4.3-9.8,10.9-17.2,19.8-22c8.8-4.9,18.5-7.4,28.9-7.4c13.1,0,23.9,3.3,32.2,10c8.4,6.6,13.7,16.1,16.1,28.3l-19.9,3.1
			c-1.9-8.1-5.3-14.2-10.1-18.3c-4.8-4.1-10.7-6.2-17.5-6.2c-10.3,0-18.7,3.7-25.2,11.1c-6.5,7.4-9.7,19.1-9.7,35.1
			c0,16.2,3.1,28.1,9.3,35.4c6.2,7.4,14.4,11,24.4,11c8,0,14.8-2.5,20.2-7.4S876.3,217.7,877.7,207.5z M994.4,236.8
			c-7.6,6.5-14.9,11-21.9,13.7c-7,2.7-14.6,4-22.6,4c-13.3,0-23.5-3.2-30.6-9.7c-7.1-6.5-10.7-14.8-10.7-24.9c0-5.9,1.3-11.3,4-16.2
			c2.7-4.9,6.2-8.8,10.6-11.8c4.4-3,9.3-5.2,14.8-6.7c4-1.1,10.1-2.1,18.2-3.1c16.6-2,28.8-4.3,36.6-7.1c0.1-2.8,0.1-4.6,0.1-5.4
			c0-8.4-1.9-14.2-5.8-17.7c-5.2-4.6-13-7-23.3-7c-9.6,0-16.8,1.7-21.4,5.1c-4.6,3.4-8,9.4-10.2,17.9l-20-2.7
			c1.8-8.6,4.8-15.5,9-20.8s10.2-9.3,18.1-12.2c7.9-2.9,17-4.3,27.5-4.3c10.3,0,18.7,1.2,25.2,3.7c6.5,2.4,11.2,5.5,14.2,9.2
			c3,3.7,5.2,8.3,6.4,14c0.7,3.5,1,9.8,1,18.9v27.3c0,19.1,0.4,31.1,1.3,36.2c0.9,5.1,2.6,9.9,5.2,14.5h-21.4
			C996.4,247.5,995,242.5,994.4,236.8z M992.7,191c-7.4,3-18.6,5.6-33.5,7.7c-8.4,1.2-14.4,2.6-17.9,4.1c-3.5,1.5-6.2,3.7-8.1,6.7
			c-1.9,2.9-2.8,6.2-2.8,9.7c0,5.5,2.1,10,6.2,13.7c4.1,3.6,10.2,5.5,18.2,5.5c7.9,0,14.9-1.7,21.1-5.2c6.2-3.5,10.7-8.2,13.6-14.2
			c2.2-4.6,3.3-11.5,3.3-20.5V191z M1044.8,251.8v-167h20.5v167H1044.8z M1179.9,212.8l21.2,2.6c-3.3,12.4-9.5,22-18.6,28.8
			c-9,6.8-20.6,10.2-34.6,10.2c-17.7,0-31.7-5.4-42.1-16.3c-10.4-10.9-15.5-26.2-15.5-45.9c0-20.4,5.2-36.2,15.7-47.4
			c10.5-11.2,24.1-16.9,40.8-16.9c16.2,0,29.4,5.5,39.7,16.5c10.2,11,15.4,26.5,15.4,46.5c0,1.2,0,3-0.1,5.5h-90.2
			c0.8,13.3,4.5,23.5,11.3,30.5s15.2,10.6,25.3,10.6c7.5,0,13.9-2,19.2-5.9C1172.6,227.8,1176.8,221.5,1179.9,212.8z M1112.6,179.6
			h67.6c-0.9-10.2-3.5-17.8-7.8-22.9c-6.5-7.9-15-11.8-25.4-11.8c-9.4,0-17.3,3.2-23.8,9.5C1116.8,160.7,1113.2,169.1,1112.6,179.6z
			"/>
	</g>
</g>
</svg>
